HIERARCHY
ROOT simHips
{
  OFFSET 6.13146 95.3961 -0.669452
  CHANNELS 6 Xposition Yposition Zposition Zrotation Xrotation Yrotation
  JOINT simSpine
  {
    OFFSET -0.000360269 21.3001 -0.0169217
    CHANNELS 3 Zrotation Xrotation Yrotation
    JOINT simLeftArm
    {
      OFFSET 13.5181 21.3012 -2.3511e-005
      CHANNELS 3 Zrotation Xrotation Yrotation
      JOINT simLeftForeArm
      {
        OFFSET 24.5783 0 -6.3921e-005
        CHANNELS 3 Zrotation Xrotation Yrotation
        JOINT simLeftHand
        {
          OFFSET 24.5783 0 0
          CHANNELS 3 Zrotation Xrotation Yrotation
          End Site
          {
            OFFSET 7.32568 1.52588e-005 0.0169305
          }
        }
      }
    }
    JOINT simHead
    {
      OFFSET 0 27.4458 -0.00488811
      CHANNELS 3 Zrotation Xrotation Yrotation
      End Site
      {
        OFFSET 0 0 0
      }
    }
    JOINT simRightArm
    {
      OFFSET -13.5174 21.3012 -1.52733e-005
      CHANNELS 3 Zrotation Xrotation Yrotation
      JOINT simRightForeArm
      {
        OFFSET -24.5783 -0.000552281 0.000112897
        CHANNELS 3 Zrotation Xrotation Yrotation
        JOINT simRightHand
        {
          OFFSET -24.5783 0 1.19926e-005
          CHANNELS 3 Zrotation Xrotation Yrotation
          End Site
          {
            OFFSET -7.32568 1.52588e-005 0.0169305
          }
        }
      }
    }
  }
  JOINT simRightUpLeg
  {
    OFFSET -8.44614 -9.41038 0.835682
    CHANNELS 3 Zrotation Xrotation Yrotation
    JOINT simRightLeg
    {
      OFFSET -3.23466e-005 -40.9639 0
      CHANNELS 3 Zrotation Xrotation Yrotation
      JOINT simRightFoot
      {
        OFFSET 0 -40.9639 0
        CHANNELS 3 Zrotation Xrotation Yrotation
        End Site
        {
          OFFSET 0.50614 -9.67405 14.6709
        }
      }
    }
  }
  JOINT simLeftUpLeg
  {
    OFFSET 8.44614 -9.41038 0.835681
    CHANNELS 3 Zrotation Xrotation Yrotation
    JOINT simLeftLeg
    {
      OFFSET -0.00018133 -40.964 6.2497e-005
      CHANNELS 3 Zrotation Xrotation Yrotation
      JOINT simLeftFoot
      {
        OFFSET 0 -40.9639 0
        CHANNELS 3 Zrotation Xrotation Yrotation
        End Site
        {
          OFFSET -0.50614 -9.67405 14.6709
        }
      }
    }
  }
}
MOTION
Frames:	27
Frame Time:	0.0333333
3.53991 95.0719 -74.6085 11.3928 21.8263 -45.7773 -2.21836 13.6928 11.6872 -64.7605 -7.66079 7.6207 -0.000112143 1.35263e-005 -81.0842 -22.5205 -42.4561 -39.7352 -0.00549667 -18.9343 8.57269 67.4717 2.49824 36.5388 -0.000549188 -7.39188e-006 91.983 175.8 -22.8958 -150.795 -23.3757 -24.8391 -37.1811 0.0033106 36.8193 0.0269114 25.866 -17.0226 4.81923 50.1558 -54.0919 41.855 -0.00162678 44.3626 -0.0077971 -14.9588 -1.75 -8.01133 
3.04248 95.1657 -74.4265 10.7376 21.0201 -45.0854 -2.35952 13.2692 12.2411 -64.8524 -7.82153 7.68483 -0.00011227 1.4309e-005 -80.5636 -22.4324 -42.5094 -38.2781 0.674484 -18.9452 8.16341 67.425 3.03452 36.8016 -0.000549313 -1.16917e-006 90.3136 176.365 -22.9771 -150.61 -23.1142 -23.1439 -36.9887 0.0036024 36.3188 0.0267376 25.9135 -17.1547 4.85929 48.5389 -53.3247 40.14 -0.00103768 44.3061 -0.0155231 -15.1685 -1.97958 -8.3307 
2.50357 95.2676 -74.2672 10.0777 20.254 -44.3757 -2.29724 12.6898 12.8112 -64.973 -7.76006 7.79026 -0.000112423 1.52045e-005 -79.9672 -22.0978 -42.1578 -38.1116 0.700331 -18.7383 7.4915 67.2309 3.58341 37.1536 -0.000549228 6.15811e-006 88.3481 176.81 -23.2919 -150.457 -22.8304 -21.4335 -36.8509 0.00247603 35.7916 0.0290035 25.9577 -17.2678 4.8989 47.0206 -52.55 38.4663 -0.0108873 44.2289 -0.0233666 -15.3813 -2.20777 -8.63638 
1.947 95.3962 -74.0983 9.41041 19.4027 -43.6671 -2.14236 12.0242 13.2986 -65.0725 -7.71695 7.97346 -0.00011257 1.60131e-005 -79.4276 -21.9507 -41.8641 -38.3135 0.790902 -18.5368 6.58944 66.9863 4.15362 37.3777 -0.000548962 1.23075e-005 86.6972 176.318 -23.4873 -150.921 -22.5701 -19.6022 -36.7164 0.00151041 35.1772 0.0311193 26 -17.3321 4.93491 45.2731 -51.6753 36.5695 0.0279857 44.0509 -0.03141 -15.6052 -2.44423 -8.88536 
1.37247 95.5428 -73.927 8.7252 18.403 -42.9942 -1.8872 11.3064 13.6874 -65.1963 -7.74248 8.19263 -0.000112702 1.67049e-005 -78.9653 -21.9717 -42.0186 -38.5995 1.03425 -18.3578 5.82326 66.8047 4.59727 37.4433 -0.000548829 1.44206e-005 86.1293 176.214 -24.1005 -151.337 -22.3364 -17.6206 -36.533 0.00068666 34.47 0.0331319 26.0351 -17.3547 4.96197 43.4331 -50.5804 34.5896 0.0281901 43.7882 -0.039738 -15.8497 -2.67903 -9.09521 
0.778546 95.7055 -73.7534 8.06329 17.2986 -42.3792 -1.56339 10.4137 13.9281 -65.2749 -7.86948 8.51915 -0.000112839 1.73899e-005 -78.5068 -22.1848 -42.2143 -39.0574 1.2664 -17.6761 5.29891 66.6071 5.00732 37.4651 -0.000548835 1.43329e-005 86.1529 176.744 -24.1677 -151.077 -22.1274 -15.5383 -36.3108 1.5151e-005 33.6506 0.0350521 26.0567 -17.3304 4.99599 41.5889 -49.2953 32.633 -0.00164971 43.4294 -0.0481669 -16.1115 -2.89901 -9.2732 
0.171007 95.8835 -73.5759 7.45271 16.1414 -41.8492 -1.20426 9.38141 14.1099 -65.332 -8.05794 8.86946 -0.000112952 1.79382e-005 -78.1392 -22.6487 -42.3331 -39.4896 1.21559 -16.7598 4.78059 66.492 5.42368 37.4756 -0.000548857 1.4006e-005 86.2407 176.646 -23.4306 -151.738 -21.9366 -13.4164 -36.0788 1.70576e-005 32.7144 0.0368969 26.0577 -17.2459 5.03609 39.7545 -47.8905 30.7289 -0.00126542 42.9804 -0.0565996 -16.389 -3.10028 -9.41144 
-0.438375 96.0665 -73.4009 6.87092 14.9158 -41.4199 -0.846139 8.34513 14.2519 -65.4165 -8.35242 9.16773 -0.000113047 1.83857e-005 -77.8388 -23.467 -42.4228 -39.9702 1.16976 -15.6699 4.23914 66.4376 5.88059 37.513 -0.000548937 1.27296e-005 86.5838 176.133 -22.6881 -151.664 -21.7702 -11.2643 -35.818 -2.37363e-005 31.6994 0.0386793 26.0451 -17.114 5.08934 38.0035 -46.3346 28.9386 -0.000749632 42.4694 -0.0648594 -16.68 -3.2861 -9.51771 
-1.04267 96.2468 -73.2331 6.31279 13.6816 -41.1078 -0.407092 7.28053 14.4023 -65.5469 -8.61935 9.41814 -0.000113142 1.88205e-005 -77.5467 -24.1472 -42.5387 -40.4067 0.980402 -14.5616 3.72428 66.4267 6.32691 37.4862 -0.000549046 1.07396e-005 87.1183 175.296 -22.8512 -152.142 -21.6063 -9.14462 -35.5294 -7.31527e-005 30.64 0.0404089 26.0288 -16.9505 5.16297 36.4318 -44.6692 27.3383 2.86546e-006 41.9178 -0.0728799 -16.9814 -3.45805 -9.60131 
-1.63677 96.4235 -73.0781 5.78764 12.4698 -40.916 0.0948964 6.21198 14.5255 -65.6344 -8.88715 9.65767 -0.000113215 1.91488e-005 -77.3258 -24.6085 -42.622 -40.6243 0.55271 -13.4628 3.36031 66.4603 6.68376 37.564 -0.000549142 8.63761e-006 87.6827 174.977 -22.8791 -152.551 -21.4467 -7.09952 -35.2267 -0.000139697 29.5525 0.0421063 26.0109 -16.7553 5.26152 35.0556 -42.934 25.9396 -0.000200914 41.3216 -0.0805696 -17.2915 -3.60585 -9.65225 
-2.20546 96.5927 -72.9399 5.31721 11.2988 -40.8495 0.676875 5.11077 14.6669 -65.7135 -9.16914 9.96402 -0.000113248 1.92958e-005 -77.2269 -25.1032 -42.6833 -40.7838 -0.224788 -12.1005 2.9428 66.4447 6.98168 37.6147 -0.000549244 5.57957e-006 88.5033 174.915 -23.0892 -152.3 -21.3169 -5.18433 -34.9038 -0.000225359 28.4763 0.0437439 25.9892 -16.5381 5.37602 33.859 -41.1816 24.742 -0.000336328 40.6957 -0.0875988 -17.6033 -3.72977 -9.65975 
-2.72813 96.7511 -72.8205 4.8793 10.0754 -40.9132 1.21544 4.20749 14.7856 -65.8183 -9.57819 10.2046 -0.000113247 1.9289e-005 -77.2315 -25.5654 -42.7718 -40.9786 -0.851228 -10.7402 2.67387 66.405 7.21556 37.8567 -0.00054931 1.60915e-006 89.5684 175.086 -23.2395 -151.432 -21.2876 -3.35175 -34.5011 -0.000345457 27.457 0.0452986 25.9757 -16.3172 5.49942 32.7318 -39.3585 23.668 7.30968e-005 40.0538 -0.0939068 -17.9092 -3.84064 -9.61105 
-3.19487 96.9003 -72.7177 4.49916 8.80033 -41.1069 1.64285 3.53426 14.8937 -65.9132 -10.0897 10.3503 -0.000113219 1.9168e-005 -77.3129 -25.9828 -42.6484 -41.2387 -1.17509 -9.59774 2.51873 66.331 7.36704 38.1709 -0.000549296 -2.96775e-006 90.796 175.834 -23.7682 -150.505 -21.3908 -1.61626 -34.0281 -0.000441294 26.4863 0.0466543 25.9796 -16.0808 5.63721 31.6365 -37.4907 22.7174 0.00109546 39.4013 -0.0994066 -18.2078 -3.94363 -9.50386 
-3.62407 97.0441 -72.6244 4.18013 7.57896 -41.3919 2.04185 2.89235 14.9587 -65.9257 -10.5898 10.5589 -0.000113163 1.89139e-005 -77.4839 -26.374 -42.4573 -41.5656 -1.54966 -8.20301 2.33383 66.1608 7.58114 38.4661 -0.000549175 -7.76992e-006 92.0844 176.269 -24.1203 -149.524 -21.5544 -0.023763 -33.5213 -0.000578185 25.5545 0.0479719 25.9828 -15.8449 5.76646 30.6354 -35.6523 21.9123 0.00195859 38.7275 -0.104424 -18.5004 -4.03994 -9.35602 
-3.99701 97.1811 -72.5278 3.9055 6.42915 -41.723 2.43782 2.28722 14.9705 -65.821 -11.0029 10.8385 -0.000113065 1.84676e-005 -77.7838 -26.8157 -42.5695 -42.0684 -1.98549 -6.74695 2.10903 65.9077 7.81017 38.7493 -0.000548911 -1.31479e-005 93.5286 176.427 -24.4374 -148.476 -21.7489 1.43757 -33.0033 -0.000786997 24.6581 0.0493439 25.9856 -15.6155 5.87603 29.7269 -33.8792 21.2258 0.00258715 38.0389 -0.108841 -18.7794 -4.1182 -9.18163 
-4.33269 97.3055 -72.447 3.63424 5.37184 -42.0872 2.90345 1.76214 14.9664 -65.674 -11.3604 11.1996 -0.000112936 1.78618e-005 -78.1904 -27.2502 -42.8726 -42.4709 -2.4485 -5.23991 2.11003 65.5336 8.0027 38.9871 -0.000548455 -1.91669e-005 95.1477 176.421 -24.6825 -147.721 -21.9363 2.75921 -32.472 -0.00106865 23.8406 0.0507079 25.9891 -15.4131 5.9732 28.9463 -32.1854 20.6421 0.00322494 37.356 -0.113016 -19.0463 -4.17535 -8.98619 
-4.63107 97.4153 -72.384 3.3765 4.38892 -42.4689 3.38244 1.34269 14.896 -65.4685 -11.755 11.6567 -0.000112762 1.70097e-005 -78.7613 -27.8254 -43.3656 -42.7454 -2.77568 -3.69378 2.37766 65.0913 8.16938 39.2328 -0.000547822 -2.52252e-005 96.7815 176.381 -24.9891 -147.569 -22.1603 3.92078 -31.9331 -0.00146563 23.1793 0.0520158 25.9886 -15.2641 6.06819 28.2401 -30.5754 20.1262 0.00321563 36.6755 -0.115879 -19.2923 -4.21393 -8.76515 
-4.89569 97.5114 -72.3514 3.13416 3.49396 -42.8375 3.8745 1.03766 14.7596 -65.2544 -12.1416 12.0323 -0.000112585 1.60911e-005 -79.3756 -28.4264 -43.8681 -43.2151 -3.16035 -2.26501 2.73984 64.624 8.31298 39.5545 -0.000547012 -3.12954e-005 98.424 176.297 -25.4954 -147.127 -22.3955 4.92572 -31.4107 -0.00194141 22.6635 0.0531862 25.9811 -15.1715 6.15455 27.6151 -29.0839 19.6673 0.00236178 36.003 -0.117047 -19.5178 -4.21989 -8.53006 
-5.13423 97.5909 -72.3435 2.89828 2.68882 -43.1904 4.3896 0.825279 14.5781 -65.0663 -12.4929 12.3197 -0.000112427 1.52264e-005 -79.9525 -29.0406 -44.2605 -43.691 -3.64561 -0.872088 3.14574 64.2976 8.2831 39.7856 -0.000545909 -3.80023e-005 100.247 176.054 -25.4613 -147.014 -22.6222 5.78951 -30.9035 -0.00245714 22.28 0.0541379 25.9707 -15.1346 6.2342 27.0871 -27.7156 19.2775 0.00152394 35.3686 -0.117869 -19.7241 -4.20372 -8.30496 
-5.34528 97.6508 -72.3568 2.67966 1.98231 -43.5513 4.92197 0.683883 14.3908 -64.9241 -12.7809 12.5198 -0.000112288 1.44211e-005 -80.489 -29.5263 -44.5944 -43.9034 -4.17054 0.295329 3.37707 64.1321 8.05584 40.0114 -0.000544628 -4.45076e-005 102.025 176.345 -25.2863 -147.101 -22.8461 6.48372 -30.3945 -0.00304362 22.0385 0.0549259 25.9637 -15.1544 6.3094 26.6695 -26.4904 18.9902 0.00080594 34.8107 -0.118424 -19.9108 -4.18113 -8.10265 
-5.52037 97.6921 -72.3845 2.52377 1.36359 -43.9389 5.39588 0.582534 14.2066 -64.8218 -12.9649 12.6031 -0.000112188 1.38089e-005 -80.8963 -30.0669 -44.8648 -44.1154 -4.67571 1.1996 3.47151 63.986 7.71501 40.2262 -0.000543169 -5.08802e-005 103.779 176.555 -25.0439 -147.61 -23.1147 6.96365 -29.8744 -0.00376244 21.9608 0.0556666 25.9669 -15.2339 6.38474 26.3229 -25.4314 18.8168 0.000246857 34.3434 -0.118753 -20.0716 -4.16074 -7.91573 
-5.65243 97.7147 -72.4179 2.44175 0.830809 -44.3378 5.77268 0.52413 13.9929 -64.7626 -13.0172 12.5726 -0.000112117 1.33599e-005 -81.1947 -30.5852 -45.1135 -44.5819 -5.1278 1.83426 3.49159 63.8375 7.39845 40.4062 -0.000541473 -5.73546e-005 105.574 176.755 -24.8627 -147.043 -23.4445 7.2227 -29.3621 -0.00463139 22.063 0.0563765 25.9781 -15.3792 6.46823 26.0176 -24.556 18.7372 -0.00014723 33.9695 -0.118878 -20.1979 -4.14638 -7.73889 
-5.74156 97.7226 -72.4557 2.41571 0.390579 -44.7357 6.06534 0.543743 13.719 -64.7399 -13.0061 12.473 -0.000112053 1.29386e-005 -81.4745 -31.3368 -45.3395 -45.2896 -5.47835 2.25122 3.5263 63.7222 7.08104 40.6081 -0.000539595 -6.37102e-005 107.352 176.836 -24.8278 -146.082 -23.7888 7.31185 -28.8701 -0.00555463 22.2555 0.0570307 25.9983 -15.5486 6.55045 25.7689 -23.868 18.7469 -0.000341189 33.7045 -0.118835 -20.2886 -4.14307 -7.58497 
-5.78241 97.7244 -72.4997 2.45072 0.0833846 -45.1371 6.316 0.602929 13.393 -64.8184 -12.9379 12.2712 -0.000112023 1.27367e-005 -81.6085 -32.0531 -45.3812 -46.2124 -5.75078 2.50894 3.68332 63.6391 6.67628 40.7926 -0.00053754 -6.99478e-005 109.113 177.05 -25.009 -145.334 -24.1047 7.22081 -28.4108 -0.00646173 22.477 0.0576135 26.0318 -15.7052 6.61618 25.6023 -23.3898 18.8608 -0.000386433 33.5303 -0.118617 -20.3392 -4.1392 -7.44733 
-5.77573 97.7208 -72.5516 2.54578 -0.0750978 -45.5445 6.56512 0.660484 13.0184 -64.9183 -12.8627 12.0679 -0.00011197 1.23713e-005 -81.8509 -32.4699 -45.5485 -46.5765 -6.00379 2.6919 4.04528 63.576 6.21728 40.8283 -0.000535327 -7.60338e-005 110.85 177.259 -25.2248 -145.088 -24.3767 6.92735 -27.9939 -0.00736789 22.7469 0.0581419 26.0628 -15.8539 6.66468 25.5404 -23.1257 19.1004 -0.000301961 33.4428 -0.118233 -20.3494 -4.12756 -7.33755 
-5.72648 97.7136 -72.6079 2.70313 -0.12044 -45.9463 6.73682 0.761607 12.5936 -65.018 -12.7812 11.8153 -0.000111917 1.19948e-005 -82.1005 -32.7712 -45.6368 -46.7379 -6.13831 2.82863 4.77765 63.5303 5.76216 40.7015 -0.00053298 -8.19324e-005 112.553 177.135 -25.4283 -145.093 -24.624 6.47193 -27.6232 -0.00824443 23.0447 0.0586159 26.0889 -15.9827 6.69738 25.5482 -23.0533 19.4456 -0.000112513 33.4362 -0.11769 -20.3189 -4.10632 -7.25839 
-5.64745 97.7059 -72.6644 2.92341 -0.0428594 -46.3363 6.81677 0.905927 12.1595 -65.1044 -12.6041 11.4943 -0.000111878 1.1715e-005 -82.2859 -32.8158 -45.539 -46.8405 -6.07429 2.88317 5.61351 63.6207 5.22498 40.4548 -0.000530537 -8.75827e-005 114.204 177.328 -26.0151 -145.007 -24.8245 5.87263 -27.3173 -0.00904754 23.337 0.0590291 26.1077 -16.0793 6.71281 25.6349 -23.1701 19.8872 0.00015083 33.5028 -0.116995 -20.2526 -4.07701 -7.20511 
